<?xml version="1.0" standalone="no"?>
<!DOCTYPE svg PUBLIC "-//W3C//DTD SVG 20010904//EN"
 "http://www.w3.org/TR/2001/REC-SVG-20010904/DTD/svg10.dtd">
<svg version="1.0" xmlns="http://www.w3.org/2000/svg"
 width="512.000000pt" height="512.000000pt" viewBox="0 0 512.000000 512.000000"
 preserveAspectRatio="xMidYMid meet">
<metadata>
Created by potrace 1.11, written by Peter Selinger 2001-2013
</metadata>
<g transform="translate(0.000000,512.000000) scale(0.100000,-0.100000)"
fill="#000000" stroke="none">
<path d="M2255 4570 c-1232 -4 -1476 -7 -1505 -19 -91 -37 -180 -126 -200
-201 -7 -25 -9 -645 -8 -1816 l3 -1779 25 -48 c30 -59 96 -121 158 -150 l47
-22 1785 0 1785 0 57 28 c33 16 76 49 102 78 83 92 76 -74 76 1914 0 2025 10
1827 -95 1932 -91 91 -103 94 -464 91 -163 -2 -957 -5 -1766 -8z m485 -585
c335 -39 545 -148 679 -351 112 -169 150 -443 89 -643 -37 -123 -138 -266
-235 -333 l-45 -31 53 -30 c84 -47 197 -168 242 -257 56 -113 77 -210 77 -357
0 -433 -223 -714 -647 -818 -156 -38 -291 -45 -880 -45 l-553 0 0 1440 0 1440
548 0 c418 0 576 -3 672 -15z"/>
<path d="M2120 3165 l0 -325 248 0 c257 1 313 7 402 47 57 26 117 85 143 143
17 35 21 66 22 135 0 111 -21 177 -73 228 -80 78 -180 97 -503 97 l-239 0 0
-325z"/>
<path d="M2120 1995 l0 -365 269 0 c296 0 347 6 438 50 120 59 173 155 173
313 0 199 -69 301 -239 353 -35 10 -117 14 -343 14 l-298 0 0 -365z"/>
</g>
</svg>
